<svg width="28" height="28" viewBox="0 0 28 28" fill="none" xmlns="http://www.w3.org/2000/svg">
<path d="M4.66675 13.9998H3.33341V24.6665C3.33341 25.3737 3.61437 26.052 4.11446 26.5521C4.61456 27.0522 5.29284 27.3332 6.00008 27.3332H12.6667V13.9998H4.66675ZM22.0001 13.9998H15.3334V27.3332H22.0001C22.7073 27.3332 23.3856 27.0522 23.8857 26.5521C24.3858 26.052 24.6667 25.3737 24.6667 24.6665V13.9998H22.0001ZM23.0547 7.33317C23.2503 6.68488 23.3443 6.01022 23.3334 5.33317C23.3334 2.75984 21.2401 0.666504 18.6667 0.666504C16.5041 0.666504 15.0601 2.6425 14.1281 4.77984C13.2094 2.75984 11.6921 0.666504 9.33342 0.666504C6.76008 0.666504 4.66675 2.75984 4.66675 5.33317C4.66675 6.12784 4.77208 6.78517 4.94542 7.33317H0.666748V12.6665H12.6667V9.99984H15.3334V12.6665H27.3334V7.33317H23.0547ZM7.33342 5.33317C7.33342 4.2305 8.23075 3.33317 9.33342 3.33317C10.5174 3.33317 11.6187 5.3665 12.2641 7.33317H8.66675C8.16808 7.33317 7.33342 7.33317 7.33342 5.33317ZM18.6667 3.33317C19.7694 3.33317 20.6667 4.2305 20.6667 5.33317C20.6667 7.33317 19.8321 7.33317 19.3334 7.33317H16.0307C16.7107 5.23184 17.6987 3.33317 18.6667 3.33317Z" fill="black" fill-opacity="0.41"/>
</svg>
