<svg width="42" height="42" viewBox="0 0 42 42" fill="none" xmlns="http://www.w3.org/2000/svg">
<g clip-path="url(#clip0)">
<path d="M38.5 3.93789H32.8125V1.31289C32.8127 0.96479 32.6747 0.630859 32.4287 0.384553C32.1827 0.138248 31.849 -0.000255905 31.5009 -0.00048797C31.1528 -0.000720034 30.8188 0.137338 30.5725 0.383316C30.3262 0.629293 30.1877 0.96304 30.1875 1.31114V3.93789H22.3125V1.31289C22.3126 1.14053 22.2788 0.969832 22.2129 0.810548C22.1471 0.651265 22.0505 0.506511 21.9287 0.384553C21.8069 0.262595 21.6623 0.16582 21.5031 0.099755C21.3439 0.0336895 21.1732 -0.000373083 21.0009 -0.000487989C20.6528 -0.000720054 20.3188 0.137338 20.0725 0.383316C19.8262 0.629293 19.6877 0.96304 19.6875 1.31114V3.93789H11.8125V1.31289C11.8126 1.14053 11.7788 0.969832 11.7129 0.810548C11.6471 0.651265 11.5505 0.506511 11.4287 0.384553C11.3069 0.262595 11.1623 0.16582 11.0031 0.099755C10.8439 0.0336895 10.6732 -0.000373083 10.5009 -0.000487989C10.1528 -0.000720054 9.81885 0.137338 9.57254 0.383316C9.32624 0.629293 9.18773 0.96304 9.1875 1.31114V3.93789H3.5C2.57205 3.93789 1.68207 4.3064 1.02574 4.96239C0.369418 5.61839 0.000463977 6.50818 0 7.43614V38.4986C0 39.4269 0.368749 40.3171 1.02513 40.9735C1.6815 41.6299 2.57174 41.9986 3.5 41.9986H38.5C39.4283 41.9986 40.3185 41.6299 40.9749 40.9735C41.6312 40.3171 42 39.4269 42 38.4986V7.43614C41.9995 6.50818 41.6306 5.61839 40.9743 4.96239C40.3179 4.3064 39.428 3.93789 38.5 3.93789ZM39.375 38.5004C39.375 38.7321 39.2831 38.9544 39.1193 39.1185C38.9556 39.2825 38.7335 39.3749 38.5017 39.3754H3.5C3.26794 39.3754 3.04538 39.2832 2.88128 39.1191C2.71719 38.955 2.625 38.7325 2.625 38.5004V7.43789C2.62546 7.20613 2.71786 6.98402 2.8819 6.8203C3.04594 6.65658 3.26824 6.56464 3.5 6.56464H9.1875V9.18964C9.18727 9.53773 9.32533 9.87167 9.5713 10.118C9.81728 10.3643 10.151 10.5028 10.4991 10.503C10.8472 10.5032 11.1812 10.3652 11.4275 10.1192C11.6738 9.87323 11.8123 9.53948 11.8125 9.19139V6.56464H19.6875V9.18964C19.6873 9.53773 19.8253 9.87167 20.0713 10.118C20.3173 10.3643 20.651 10.5028 20.9991 10.503C21.3472 10.5032 21.6812 10.3652 21.9275 10.1192C22.1738 9.87323 22.3123 9.53948 22.3125 9.19139V6.56464H30.1875V9.18964C30.1873 9.53773 30.3253 9.87167 30.5713 10.118C30.8173 10.3643 31.151 10.5028 31.4991 10.503C31.8472 10.5032 32.1812 10.3652 32.4275 10.1192C32.6738 9.87323 32.8123 9.53948 32.8125 9.19139V6.56464H38.5C38.7315 6.5651 38.9533 6.65725 39.117 6.82092C39.2806 6.98458 39.3728 7.20643 39.3733 7.43789L39.375 38.5004Z" fill="#3FB095"/>
<path d="M9.1875 15.75H14.4375V19.6875H9.1875V15.75Z" fill="#3FB095"/>
<path d="M9.1875 22.3125H14.4375V26.25H9.1875V22.3125Z" fill="#3FB095"/>
<path d="M9.1875 28.875H14.4375V32.8125H9.1875V28.875Z" fill="#3FB095"/>
<path d="M18.375 28.875H23.625V32.8125H18.375V28.875Z" fill="#3FB095"/>
<path d="M18.375 22.3125H23.625V26.25H18.375V22.3125Z" fill="#3FB095"/>
<path d="M18.375 15.75H23.625V19.6875H18.375V15.75Z" fill="#3FB095"/>
<path d="M27.5625 28.875H32.8125V32.8125H27.5625V28.875Z" fill="#3FB095"/>
<path d="M27.5625 22.3125H32.8125V26.25H27.5625V22.3125Z" fill="#3FB095"/>
<path d="M27.5625 15.75H32.8125V19.6875H27.5625V15.75Z" fill="#3FB095"/>
</g>
<defs>
<clipPath id="clip0">
<rect width="42" height="42" fill="white"/>
</clipPath>
</defs>
</svg>
