<svg width="308" height="532" viewBox="0 0 308 532" fill="none" xmlns="http://www.w3.org/2000/svg">
<path fill-rule="evenodd" clip-rule="evenodd" d="M282.76 9.12641C335.277 11.7899 390.264 4.19485 434.961 31.8376C481.404 60.5595 507.822 110.753 528.618 161.174C550.966 215.361 573.208 273.544 557.99 330.138C542.413 388.061 495.078 430.496 446.646 466.001C397.989 501.67 343.099 533.987 282.76 531.905C223.382 529.855 174.954 489.844 126.909 454.964C78.8951 420.107 23.3086 387.319 5.66823 330.742C-11.8965 274.407 15.1632 216.132 35.1274 160.599C54.4583 106.828 70.0819 45.6611 118.888 15.8073C166.668 -13.4188 226.791 6.28783 282.76 9.12641Z" fill="black" fill-opacity="0.15"/>
</svg>
