<svg width="208" height="570" viewBox="0 0 208 570" fill="none" xmlns="http://www.w3.org/2000/svg">
<path fill-rule="evenodd" clip-rule="evenodd" d="M-72.0252 0.280395C-12.1914 -2.40202 50.5692 14.0452 94.6262 54.6408C136.59 93.3072 137.194 156.115 155.694 210.108C174.605 265.3 221.966 318.365 204.008 373.874C186.05 429.387 116.547 444.562 68.9436 478.268C22.1436 511.404 -14.9757 563.617 -72.0252 569.319C-131.166 575.23 -185.588 541.613 -235.058 508.652C-286.468 474.399 -343.279 437.232 -359.689 377.655C-375.886 318.851 -342.932 259.951 -319.016 203.844C-297.241 152.761 -271.01 104.421 -228.168 69.112C-183.168 32.0236 -130.269 2.89153 -72.0252 0.280395Z" fill="black" fill-opacity="0.12"/>
</svg>
